<svg viewBox="0 0 600 600" xmlns="http://www.w3.org/2000/svg" >
<circle fill="#006ec7" cx="300" cy="300" r="275" />
<path fill="#fff" d="m 388.6,154.1 h 62.8 V 124.9 H 362 l -1.8,10.3 c 11.9,11.3 20.1,25.9 23.7,41.9 z m -29.3,102.7 c 10.4,8.3 25,11.6 41.5,11.6 32.9,0 58.1,-17.5 58.1,-52.5 0,-29.4 -18.5,-46.1 -47.6,-46.1 -10.4,0 -19.8,3.1 -26.9,9.6 1.1,5.3 1.6,10.7 1.6,16.1 0,1 0,1.8 0,2.7 4.5,-3 9.8,-4 16.1,-4 14.2,0 22.3,9.6 22.3,23.4 0,13.8 -10.1,22.7 -23.5,22.7 -8.4,0 -18.1,-4.2 -21.5,-11.9 -4.6,10.8 -11.4,20.4 -20,28.4 v 0 z m -8.6,-60.1 c 0,-28.1 -22.7,-50.8 -50.7,-50.8 -28,0 -50.6,22.7 -50.6,50.8 0,28 22.6,50.7 50.6,50.7 28,0 50.7,-22.7 50.7,-50.7 z M 249.1,131.4 v -6.5 H 159.7 L 145.8,205 h 31.3 c 5.5,-8.5 12.8,-10.8 22.6,-10.8 9.7,0 16.6,4.5 19.9,11.8 -0.8,-3.5 -0.8,-7 -0.8,-10.5 0,-8.2 1.2,-16.4 3.6,-24.3 -4.4,-0.9 -9,-1.4 -13.5,-1.4 -10.8,0 -20.6,3.3 -27.7,10.2 h -0.4 l 5.3,-25.9 h 43.7 c 4.9,-8.6 11.4,-16.3 19.1,-22.7 z m -73.4,91.3 h -34.5 c 2,33.9 26.4,45.7 57.2,45.7 17.7,0 33.1,-5.1 43.6,-15.1 -9.5,-10 -16.4,-22.2 -20,-35.5 0,13.7 -10.3,22.5 -23.6,22.5 -10.4,0 -22.5,-6.4 -22.7,-17.6 z"/>
<path fill="#fff" d="m 161.5,474.8 c 5.2,0 9.3,-1.2 12.3,-3.6 3.1,-2.4 4.8,-6 4.6,-9.9 0.1,-2.4 -0.6,-4.8 -2.1,-6.8 -1.4,-1.6 -3,-3 -4.9,-3.9 -2.4,-1.1 -4.8,-2.2 -7.4,-3.1 -2.8,-1 -4.9,-1.8 -6.2,-2.4 -1.1,-0.4 -2.2,-1.1 -3,-2 -0.8,-0.8 -1.1,-1.8 -1.1,-2.8 0,-1.4 0.6,-2.8 1.8,-3.6 1.4,-1 3.1,-1.5 4.8,-1.4 2.3,-0.1 4.5,0.6 6.3,2 1.4,1.1 2.3,2.9 2.3,4.7 v 0.6 c 0,0.2 0,0.4 0.2,0.5 0.2,0.2 0.3,0.3 0.5,0.3 h 7.7 c 0.2,0 0.4,-0.1 0.5,-0.3 0.2,-0.1 0.2,-0.3 0.2,-0.5 v -1 c 0.1,-2.7 -0.7,-5.3 -2.1,-7.5 -1.6,-2.2 -3.7,-3.9 -6.2,-5 -2.8,-1.2 -5.9,-1.8 -9,-1.8 -2.8,0 -5.7,0.5 -8.4,1.6 -2.3,1 -4.2,2.5 -5.7,4.6 -1.3,2 -2.1,4.5 -2,6.9 -0.1,2.5 0.6,4.9 2.1,6.8 1.3,1.8 3.1,3.3 5.1,4.4 2.5,1.2 4.9,2.2 7.5,3.1 2.7,0.9 4.6,1.7 5.8,2.3 1.1,0.4 2,1.1 2.9,1.9 0.7,0.7 1.1,1.7 1,2.7 0.1,1.4 -0.6,2.7 -1.7,3.6 -1.1,1 -2.9,1.5 -5.2,1.5 -2.4,0.2 -4.7,-0.5 -6.6,-1.8 -1.5,-1 -2.5,-2.7 -2.5,-4.5 v -1 c 0,-0.2 -0.1,-0.3 -0.2,-0.5 -0.2,-0.2 -0.4,-0.2 -0.6,-0.2 h -7.5 c -0.4,0 -0.8,0.3 -0.8,0.7 0,0 0,0 0,0 v 1.5 c 0,2.6 0.7,5.2 2.2,7.3 1.5,2.2 3.6,3.9 6.1,4.9 2.9,1.1 6.1,1.7 9.3,1.6 v 0 z m 37.1,-0.6 h 7.4 c 0.4,0 0.8,-0.3 0.8,-0.7 0,0 0,0 0,0 l 6.3,-28.6 c 0,-0.2 0.1,-0.3 0.2,-0.3 0.1,0 0.2,0 0.3,0.3 l 6.6,28.6 c 0,0.4 0.8,0.7 0.9,0.7 h 7.9 c 0.7,0.1 0.8,-0.2 0.9,-0.7 l 10.9,-44.8 c 0,-0.6 0,-0.9 -0.8,-0.9 h -7.8 c -0.7,0 -0.7,0.3 -0.8,0.7 l -6.1,27 c 0,0.1 0,0.2 0,0.2 0,0 0,-0.1 0,-0.2 l -7,-26.9 c -0.1,-0.5 -0.5,-0.7 -0.9,-0.7 h -8.1 c -0.4,0 -0.8,0.3 -0.8,0.7 l -6.1,26.9 c 0,0.2 -0.1,0.3 -0.2,0.3 -0.1,0 -0.2,-0.1 -0.3,-0.3 l -6.2,-26.9 c -0.1,-0.4 -0.4,-0.7 -0.8,-0.7 h -8.2 c -0.5,0 -0.7,0.2 -0.7,0.7 v 0.2 l 11.7,44.9 c 0.1,0.4 0.4,0.7 0.9,0.6 z m 84.1,-39.1 v -6.5 c 0,-0.4 0,-0.8 -0.8,-0.8 h -30.5 c 0,0 -0.8,0.1 -0.8,0.3 0,0.1 0,0.4 0,0.5 v 44.8 c 0,0.2 0,0.4 0,0.6 0,0.1 0,0.2 0.8,0.2 h 30.5 c 0.8,0 0.8,-0.4 0.8,-0.8 V 467 c 0,-0.5 0,-0.8 -0.8,-0.8 h -21.6 c 0,0 0,-0.1 0,-0.3 0,0 0,0 0,0 v -10.7 c 0,-0.2 0,-0.3 0,-0.3 0,0 0,0 0,0 h 14.1 c 0,0 0.8,-0.1 0.8,-0.3 0,-0.1 0,-0.3 0,-0.5 v -6.5 c 0,-0.2 0,-0.3 0,-0.5 0,-0.2 -0.8,-0.2 -0.8,-0.2 h -14.1 c 0,0 0,-0.1 0,-0.3 0,0 0,0 0,0 v -10.3 c 0,-0.3 0,-0.3 0,-0.3 h 21.6 c 0.8,0 0.8,-0.4 0.8,-0.8 v 0 z m 32.5,30.7 1,-1 c 3.1,-3.2 5.4,-5.6 7,-7.3 1.6,-1.7 3.1,-3.4 4.4,-5.1 1.7,-1.9 3.1,-4 4.2,-6.3 0.9,-1.8 1.4,-3.7 1.4,-5.7 0,-2.3 -0.8,-4.6 -1.8,-6.6 -1.4,-2 -3.2,-3.7 -5.4,-4.7 -2.6,-1.3 -5.4,-1.9 -8.2,-1.8 -2.6,0 -5.2,0.5 -7.6,1.5 -2.2,0.9 -4.1,2.3 -5.5,4.2 -1.4,1.8 -2.2,4 -2.2,6.3 v 3.1 c 0,0.5 0,0.8 0.7,0.8 h 7.8 c 0,0 0.8,-0.1 0.8,-0.2 0,-0.2 0,-0.3 0,-0.6 v -1.6 c 0,-1.5 0.8,-3 1.6,-4 2.5,-2 6,-2 8.6,0 1.1,1 1.7,2.4 1.7,3.8 0,2.2 -2.1,5.5 -6.1,10 -1.2,1.3 -2.4,2.7 -3.6,4.1 l -4.3,4.7 c -2.2,2.5 -4.4,4.8 -6.6,6.9 0,0.3 -0.8,0.6 -0.8,1 v 6.1 c 0,0.2 0,0.4 0,0.6 0,0.1 0.8,0.2 0.8,0.2 h 29.8 c 0,0 0.8,-0.3 0.8,-0.8 V 467 c 0,-0.5 -0.8,-0.8 -0.8,-0.8 h -18 c 0,0 0,0 0,-0.2 0,0 0,-0.2 0,-0.2 v 0 z m 44,9.2 c 4.9,0 8.8,-1.4 11.6,-4.1 2.8,-2.7 4.2,-6.4 4.2,-11.1 v -17.5 c 0,-4.6 -1.4,-8.2 -4.2,-10.9 -2.8,-2.7 -6.7,-4.1 -11.6,-4.1 -4.8,0 -8.7,1.4 -11.5,4.1 -2.8,2.7 -4.3,6.3 -4.3,10.9 v 17.5 c 0,4.7 1.5,8.4 4.3,11.1 2.8,2.7 6.7,4.1 11.5,4.1 z m 0,-8 c -1.8,0 -3.4,-0.6 -4.6,-1.9 -1.3,-1.3 -1.9,-3 -1.8,-4.8 v -18.2 c 0,-1.8 0.8,-3.6 1.8,-4.9 1.2,-1.3 2.8,-1.9 4.6,-1.8 1.7,-0.1 3.5,0.5 4.7,1.8 1.3,1.3 1.9,3.1 1.8,4.9 v 18.2 c 0,1.8 -0.8,3.5 -1.8,4.8 -1.2,1.3 -3,1.9 -4.7,1.9 z m 38.4,-1.2 1,-1 c 3.1,-3.1 5.5,-5.6 7,-7.2 1.7,-1.7 3.2,-3.4 4.5,-5.2 1.6,-1.9 3,-4 4.2,-6.2 0.8,-1.8 1.3,-3.8 1.4,-5.7 0,-2.4 -0.8,-4.7 -1.9,-6.7 -1.3,-2 -3.2,-3.6 -5.3,-4.7 -2.6,-1.2 -5.4,-1.8 -8.2,-1.8 -2.7,0 -5.2,0.5 -7.7,1.5 -2.1,0.9 -4,2.3 -5.5,4.2 -1.3,1.8 -2.1,4.1 -2.2,6.3 v 3.1 c 0,0.3 0,0.4 0,0.6 0,0.1 0,0.2 0.8,0.2 h 7.8 c 0,0 0,-0.1 0.8,-0.2 0,-0.2 0,-0.3 0,-0.6 v -1.6 c 0,-1.5 0.8,-3 1.7,-4 2.5,-2 6.1,-2 8.6,0 1,1 1.7,2.4 1.6,3.8 0,2.2 -2,5.5 -6,10 -1.2,1.3 -2.5,2.7 -3.7,4.1 -0.8,0.7 -2.1,2.2 -4.2,4.7 -2.3,2.5 -4.6,4.8 -6.7,6.9 0,0.3 -0.7,0.7 -0.7,1 v 6.1 c 0,0.2 0,0.4 0,0.6 0,0.1 0.7,0.2 0.7,0.2 h 29.7 c 0.8,0 0.9,-0.3 0.9,-0.8 V 467 c 0,-0.5 -0.8,-0.8 -0.9,-0.8 h -17.9 c 0,0 0,0 0,-0.2 0,0 0,-0.2 0,-0.2 v 0 z M 458.1,454 h -2.9 c 0,0 0,0 0,-0.3 v -8.2 c 0,-0.4 0,-0.8 -0.8,-0.8 0,0 0,0 0,0 h -7.7 c -0.8,0 -0.9,0.3 -0.9,0.8 0,0 0,0 0,0 v 8.2 c 0,0.2 0,0.3 0,0.3 h -10 c 0,0 0,0 0,-0.1 0,-0.1 0,-0.2 0,-0.3 l 11,-24.8 c 0,-0.2 0,-0.6 0,-0.8 0,-0.2 0,-0.2 -0.7,-0.2 h -8.3 c -0.8,0 -0.8,0.3 -0.9,0.6 l -12.6,26.8 c 0,0.3 0,0.7 0,1 v 5.3 c 0,0.5 0,0.8 0.8,0.8 h 20.3 c 0,0 0,0.1 0,0.3 v 10.8 c 0,0.5 0,0.8 0.9,0.8 0,0 0,0 0,0 h 7.7 c 0.8,0 0.8,-0.3 0.8,-0.8 v -10.8 c 0,-0.2 0,-0.3 0,-0.3 h 2.9 c 0.7,0 0.7,-0.4 0.7,-0.8 v -6.7 c 0,-0.2 0,-0.3 0,-0.5 0,-0.2 0,-0.2 -0.7,-0.2 z" />
<path fill="#fff" d="m 159.4,417.7 h 8.9 c 0.4,0 0.8,-0.3 0.9,-0.7 l 14.7,-47.6 c 0.1,0 0.1,-0.8 0,-0.8 -0.2,0 -0.4,0 -0.6,0 h -8.7 c -0.5,0 -0.9,0 -1,0.8 l -9.3,34 c 0,0.2 -0.1,0.3 -0.2,0.3 -0.1,0 -0.2,-0.1 -0.2,-0.3 L 154.6,369 c -0.1,-0.7 -0.6,-0.7 -1,-0.7 h -8.9 c -0.5,0 -0.8,0 -0.8,0.7 h 0.1 l 14.5,47.7 c 0.1,0.4 0.5,0.7 0.9,0.7 v 0 z m 60.3,0 h 8.9 c 0.8,0 0.8,-0.2 0.8,-0.6 0,-0.2 0,-0.3 0,-0.4 L 214.2,369 c -0.1,-0.7 -0.5,-0.7 -1,-0.7 h -11 c -0.4,0 -0.8,0 -0.9,0.7 l -15.2,47.7 c -0.1,0.2 -0.1,0.6 0,0.8 0.2,0.1 0.4,0.2 0.6,0.2 h 9 c 0.5,0 0.9,-0.2 1,-0.7 l 2,-6.9 c 0.1,-0.1 0.2,-0.3 0.4,-0.3 h 17.2 c 0.2,0 0.2,0.1 0.4,0.3 l 2.1,6.9 c 0,0.4 0.8,0.7 1,0.7 v 0 z m -18.5,-16 6.2,-21 c 0,0 0.1,0 0.2,0 0.1,0 0.2,0 0.3,0 l 6.3,21 c 0.1,0.3 0,0.4 -0.3,0.4 h -12.4 c -0.2,0 -0.3,-0.2 -0.3,-0.4 z m 65.1,16 h 8.6 c 0.8,0 0.8,-0.2 0.8,-0.5 0,-0.2 0,-0.4 0,-0.4 l -9.6,-19.9 c 0,0 0,-0.8 0,-0.8 0,0 0,0 0,0 2.7,-0.8 5.1,-2.5 6.7,-4.8 1.6,-2.5 2.4,-5.3 2.3,-8.2 0,-2.8 -0.7,-5.4 -1.8,-7.8 -1.2,-2.3 -3.1,-4.1 -5.3,-5.2 -2.4,-1.4 -5.2,-2 -7.9,-1.9 h -20.2 c 0,0 0,0 -0.7,0 0,0 0,0.8 0,0.8 v 47.6 c 0,0.2 0,0.5 0,0.6 0,0.2 0,0.2 0.7,0.2 h 8.3 c 0,0 0.8,0 0.8,-0.2 0,-0.1 0,-0.4 0,-0.6 v -19.3 c 0,0 0,0 0,0 0,0 0,0 0,0 h 6.4 c 0,0 0.8,0 0.8,0 l 8.8,19.5 c 0,0.4 0.8,0.6 1,0.6 v 0 z m -16.7,-40.8 h 9.2 c 1.8,0 3.5,0.8 4.8,1.8 1.3,1.2 2,2.9 1.9,4.6 0,1.7 -0.8,3.4 -1.9,4.6 -1.3,1.2 -3,1.8 -4.8,1.7 h -9.2 c 0,0 0,0 0,0 0,0 0,0 0,0 v -12.1 c 0,0 0,0 0,0 0,0 0,0 0,0 z M 315,392 c 4,-2.1 6,-5.4 6,-10.1 0,-9 -5.5,-13.6 -16.7,-13.6 h -17.6 c 0,0 -0.8,0 -0.8,0 0,0 0,0.8 0,0.8 v 47.7 c 0,0.4 0.8,0.8 0.8,0.8 0,0 0,0 0,0 H 305 c 4.9,0 9,-1.1 12.1,-3.5 3,-2.3 4.6,-5.7 4.7,-10.3 0,-5.3 -2.3,-9.2 -6.7,-11.5 0,0 0,0 0,-0.7 v 0 z m -18.9,-15.1 h 8.2 c 1.8,0 3.7,0.8 5.2,1.6 1.2,1.1 1.9,2.6 1.8,4.3 0,1.6 -0.7,3.2 -1.8,4.2 -1.5,1.1 -3.4,1.7 -5.2,1.6 h -8.2 c 0,0 -0.8,0 -0.8,-0.8 v -11 c 0,0 0,0 0,0 0,0 0,0 0,0 z m 8.8,32.2 h -8.8 c 0,0 -0.8,-0.1 -0.8,-0.3 V 397 c 0,0 0,0 0,0 0,0 0,0 0,0 h 8.7 c 1.9,0 3.8,0.8 5.2,1.7 2.4,2.5 2.4,6.6 0,9.1 -1.4,1.2 -3.2,1.8 -5.1,1.7 z m 61.5,-33 v -6.9 c 0,0 0,0 0,-0.8 0,0 0,0 -0.8,0 h -32.5 c 0,0 -0.8,0 -0.8,0 0,0 0,0 0,0.8 v 47.7 c 0,0.2 0,0.5 0,0.6 0,0.2 0.8,0.3 0.8,0.3 h 32.5 c 0.8,0 0.8,-0.4 0.8,-0.9 0,0 0,0 0,0 v -6.8 c 0,-0.5 0,-0.8 -0.8,-0.9 0,0 0,0 0,0 h -23.1 c 0,0 0,0 0,-0.3 0,0 0,0 0,0 v -11.5 c 0,0 0,0 0,-0.8 0,0 0,0 0,0 h 15.2 c 0,0 0.8,0 0.8,0 0,0 0,-0.7 0,-0.7 v -6.8 c 0,0 0,-0.8 0,-0.8 0,0 -0.8,0 -0.8,0 h -15.2 c 0,0 0,0 0,0 0,0 0,0 0,0 v -10.9 c 0,0 0,0 0,0 0,0 0,0 0,0 h 23.1 c 0.8,0 0.8,-0.8 0.8,-0.9 0,0 0,0 0,0 v 0 z m 37.2,41.6 h 8.7 c 0.7,0 0.7,-0.1 0.7,-0.5 0,-0.2 0,-0.4 0,-0.5 l -9.5,-19.9 c 0,0 0,-0.8 0,-0.8 0,0 0,0 0,0 2.7,-0.8 5,-2.5 6.7,-4.7 1.6,-2.5 2.5,-5.3 2.3,-8.3 0,-2.7 -0.8,-5.4 -1.9,-7.8 -1.1,-2.3 -3,-4.1 -5.2,-5.2 -2.5,-1.3 -5.2,-2 -7.9,-1.9 h -20.2 c 0,0 -0.8,0 -0.8,0 0,0 0,0.8 0,0.8 v 47.6 c 0,0.3 0,0.5 0,0.6 0,0.2 0,0.3 0.8,0.3 h 8.3 c 0,0 0.7,-0.1 0.7,-0.3 0,-0.1 0,-0.3 0,-0.6 v -19.2 c 0,0 0,0 0,0 0,0 0,0 0,0 h 6.6 c 0,0 0,0 0.8,0 l 8.8,19.4 c 0,0.4 0.7,0.7 0.9,0.7 v 0 z m -16.7,-40.8 h 9.2 c 1.8,0 3.5,0.8 4.8,1.8 1.2,1.2 1.9,2.9 1.9,4.6 0,1.7 -0.8,3.4 -1.9,4.6 -1.3,1.2 -3,1.8 -4.8,1.7 h -9.2 c 0,0 -0.8,0 -0.8,0 0,0 0,0 0,0 v -12.1 c 0,0 0,0 0,0 0,0 0,0 0,0 z m 53.8,41.4 c 3.3,0 6.5,-0.7 9.5,-2.1 2.7,-1.3 4.9,-3.4 6.4,-6 1.5,-2.9 2.3,-6.1 2.2,-9.4 v -9.3 c 0,0 0,-0.8 0,-0.8 0,0 -0.7,0 -0.7,0 h -17.2 c 0,0 -0.8,0 -0.8,0 0,0 0,0 0,0.8 v 6.5 c 0,0.5 0,0.8 0.9,0.8 0,0 0,0 0,0 h 7.9 c 0,0 0,0.1 0.7,0.3 0,0 0,0 0,0.1 v 3.2 c -0.4,2 -1.2,4 -2.8,5.4 -1.6,1.3 -3.6,2 -5.8,1.9 -2.3,0.1 -4.5,-0.8 -6.2,-2.3 -1.7,-1.7 -2.6,-3.9 -2.5,-6.2 v -16.3 c 0,-2.3 0.8,-4.6 2.3,-6.2 3.4,-3.1 8.6,-3.2 12.1,0 1.5,1.4 2.2,3.4 2.2,5.5 v 0 c 0,0.7 0,0.7 0.8,0.8 0,0 0,0 0,0 h 8.2 c 0,0 0.8,0 0.8,0 0,0 0,0 0,-0.8 v -0.7 c 0,-2.8 -0.8,-5.6 -2.3,-8.1 -1.5,-2.5 -3.8,-4.4 -6.4,-5.7 -6,-2.8 -13,-2.8 -19,0 -2.8,1.4 -5,3.5 -6.5,6 -1.6,2.9 -2.3,6 -2.3,9.2 v 15.8 c 0,3.1 0.8,6.3 2.3,9 1.5,2.6 3.8,4.7 6.5,6.1 2.9,1.5 6.2,2.3 9.5,2.2 v 0 z"/>
<path fill="#fff" d="m 154.6,356.2 h 7.7 c 0.5,0 0.9,0 0.9,-0.8 0,0 0,0 0,0 l 6.6,-30.1 c 0,0 0.2,0 0.3,0 0,0 0.1,0 0.2,0 l 7.1,30.2 c 0.1,0.8 0.5,0.8 0.9,0.8 h 8.3 c 0.5,0 0.9,0 1,-0.8 L 199,308.3 c 0.2,-0.8 -0.1,-0.9 -0.8,-0.9 H 190 c -0.4,0 -0.8,0 -0.9,0.8 l -6.4,28.3 c 0,0 -0.2,0 -0.3,0 -0.1,0 -0.1,0 -0.2,0 l -7,-28.4 c -0.1,-0.8 -0.5,-0.8 -0.9,-0.8 h -8.4 c -0.5,0 -0.9,0 -1,0.8 l -6.3,28.4 c 0,0 -0.2,0 -0.3,0 0,0 -0.1,0 -0.2,0 l -6.6,-28.4 c -0.1,-0.8 -0.5,-0.8 -0.9,-0.8 h -8.7 c -0.5,0 -0.7,0 -0.7,0.8 v 0 l 12.3,47.1 c 0.2,0.8 0.5,0.8 1,0.8 v 0 z m 76.5,0.8 c 3.3,0 6.7,-0.8 9.6,-2.2 2.7,-1.4 5,-3.6 6.5,-6.3 1.5,-2.8 2.3,-6 2.2,-9.2 v -15 c 0,-3.2 -0.7,-6.3 -2.2,-9.1 -1.6,-2.7 -3.8,-4.8 -6.5,-6.2 -6.1,-2.9 -13.1,-2.9 -19.2,0 -2.7,1.4 -4.9,3.5 -6.4,6.2 -1.6,2.8 -2.4,5.9 -2.3,9.1 v 15 c 0,3.2 0.7,6.4 2.3,9.2 1.5,2.7 3.7,4.8 6.4,6.3 2.9,1.5 6.2,2.2 9.6,2.2 z m 0,-8.5 c -2.3,0 -4.6,-0.7 -6.2,-2.4 -1.6,-1.8 -2.4,-4.1 -2.3,-6.4 v -15.4 c 0,-2.4 0.8,-4.8 2.3,-6.5 1.6,-1.7 3.8,-2.6 6.2,-2.5 2.3,0 4.6,0.8 6.2,2.5 1.6,1.7 2.5,4.1 2.3,6.5 v 15.3 c 0,2.4 -0.8,4.7 -2.3,6.4 -1.6,1.8 -3.9,2.6 -6.2,2.5 z m 62.2,7.8 h 8.5 c 0.8,0 0.8,0 0.8,-0.8 0,0 0,0 0,0 l -9.5,-19.7 c 0,0 0,-0.8 0,-0.8 0,0 0,0 0,0 2.7,-0.9 5,-2.5 6.6,-4.8 1.7,-2.4 2.5,-5.3 2.4,-8.2 0,-2.6 -0.8,-5.3 -1.9,-7.7 -1.2,-2.2 -2.9,-4 -5.2,-5.1 -2.4,-1.3 -5.1,-1.9 -7.8,-1.8 h -19.9 c -0.8,0 -0.8,0 -0.9,0.8 0,0 0,0 0,0 v 47.1 c 0,0.8 0.8,0.9 0.9,0.9 0,0 0,0 0,0 h 8.1 c 0.8,0 0.9,0 0.9,-0.9 0,0 0,0 0,0 v -19 c 0,0 0,0 0,-0.8 0,0 0,0 0,0 h 6.5 c 0,0 0.7,0 0.7,0 l 8.7,19.3 c 0,0.8 0.8,0.8 1,0.8 v 0 z m -16.6,-40.4 h 9.1 c 1.8,0 3.5,0.8 4.8,1.8 1.2,1.1 1.9,2.8 1.8,4.5 0,1.7 -0.8,3.3 -1.8,4.5 -1.3,1.2 -3,1.8 -4.8,1.7 h -9.1 c 0,0 0,0 0,0 0,0 0,0 0,0 v -11.8 c 0,0 0,0 0,0 0,0 0,0 0,0 v 0 z m 43,40.3 h 32.1 c 0.7,0 0.8,0 0.8,-0.8 v -6.8 c 0,0 0,-0.8 0,-0.8 0,0 0,0 -0.8,0 h -22.7 c 0,0 -0.8,0 -0.8,0 0,0 0,0 0,0 v -39.2 c 0,-0.7 -0.8,-0.8 -0.8,-0.8 0,0 0,0 0,0 h -8.1 c -0.8,0 -0.9,0 -0.9,0.8 0,0 0,0 0,0 v 47.2 c 0,0.8 0.8,0.8 0.9,0.8 z m 49.6,0 h 17.4 c 3.2,0 6.3,-0.8 9.2,-1.9 2.5,-1.1 4.6,-2.9 6.1,-5.1 1.5,-2.4 2.2,-5 2.1,-7.8 v -19.2 c 0,-2.7 -0.8,-5.5 -2.1,-7.7 -1.5,-2.3 -3.6,-4.2 -6.1,-5.2 -2.9,-1.3 -6,-2 -9.2,-1.9 h -17.4 c -0.8,0 -0.8,0 -0.8,0.8 0,0 0,0 0,0 v 47.1 c 0,0.8 0,0.9 0.8,0.9 0,0 0,0 0,0 z m 9,-8.7 v -31.2 c 0,0 0,0 0,0 0,0 0,0 0,0 h 8.4 c 2,0 3.9,0.7 5.3,2.2 1.4,1.5 2.1,3.6 2,5.7 v 16.1 c 0,2.1 -0.7,4.1 -2.1,5.7 -1.3,1.5 -3.2,2.3 -5.2,2.2 h -8.4 c 0,0 0,0 0,0 0,0 0,0 0,0 v 0 z m 60,9.3 c 5.4,0 9.8,-1.3 13.1,-3.8 3.1,-2.5 4.9,-6.3 4.8,-10.4 0,-2.6 -0.8,-5 -2.3,-7.1 -1.4,-1.8 -3.1,-3.2 -5.1,-4.2 -2.5,-1.2 -5.2,-2.2 -7.7,-3.2 -3.1,-1 -5.2,-1.9 -6.6,-2.5 -1.2,-0.8 -2.3,-1.2 -3.2,-2.2 -0.8,-0.7 -1.1,-1.8 -1,-2.8 0,-1.6 0.7,-3 1.8,-3.9 1.5,-1 3.3,-1.5 5.1,-1.4 2.3,0 4.7,0.8 6.5,2.1 1.6,1.1 2.4,3 2.4,5 v 0.7 c 0,0.8 0,0.9 0.9,0.9 h 8 c 0,0 0,0 0.8,0 0,0 0,0 0,-0.8 v -1.1 c 0,-2.7 -0.8,-5.5 -2.3,-7.8 -1.7,-2.3 -3.9,-4.1 -6.5,-5.3 -3,-1.2 -6.2,-1.9 -9.4,-1.8 -3.1,0 -6.1,0.7 -8.9,1.7 -2.3,1 -4.4,2.6 -5.9,4.7 -1.5,2.2 -2.3,4.8 -2.2,7.3 0,2.6 0.8,5.1 2.2,7.2 1.5,2 3.2,3.5 5.4,4.6 2.6,1.3 5.2,2.4 7.9,3.3 2.8,1 4.8,1.9 6.1,2.4 1.1,0.8 2.1,1.1 3,2 0.8,0.7 1.2,1.7 1.2,2.8 0,1.5 -0.8,2.9 -1.9,3.9 -1.2,1 -3,1.5 -5.4,1.5 -2.5,0 -5,-0.8 -7.1,-1.9 -1.5,-1 -2.4,-2.8 -2.5,-4.6 V 341 c 0,0 0,-0.8 0,-0.8 0,0 0,0 -0.8,0 h -7.9 c 0,0 -0.8,0 -0.8,0 0,0 0,0 0,0.8 v 1.5 c 0,2.8 0.8,5.4 2.2,7.8 1.7,2.2 3.8,4 6.5,5 3,1.3 6.4,1.8 9.7,1.8 v 0 z" />
</svg>
